<svg xmlns="http://www.w3.org/2000/svg" width="263" height="632" viewBox="0 0 263 632" fill="none" style="">
<g style="stroke: inherit;">
<path d="M808.448 630.752H0H808.448ZM137.606 -127.997L0.849967 630.412L137.606 -127.997ZM815.452 583.749H8.47594H815.452ZM188.042 -127.997L51.2863 630.412L188.042 -127.997ZM823.998 536.349H17.0236H823.998ZM238.478 -127.997L101.722 630.412L238.478 -127.997ZM832.544 488.949H25.5707H832.544ZM288.914 -127.997L152.158 630.412L288.914 -127.997ZM841.096 441.543H34.1178H841.096ZM339.35 -127.997L202.594 630.412L339.35 -127.997ZM849.642 394.143H42.6649H849.642ZM389.786 -127.997L253.03 630.412L389.786 -127.997ZM858.188 346.744H51.2126H858.188ZM440.222 -127.997L303.466 630.412L440.222 -127.997ZM866.734 299.344H59.7597H866.734ZM490.658 -127.997L353.902 630.412L490.658 -127.997ZM875.285 251.943H68.3068H875.285ZM541.096 -127.997L404.338 630.412L541.096 -127.997ZM883.831 204.543H76.8539H883.831ZM591.531 -127.997L454.774 630.412L591.531 -127.997ZM892.377 157.142H85.4015H892.377ZM641.967 -127.997L505.21 630.412L641.967 -127.997ZM900.923 109.742H93.9487H900.923ZM692.403 -127.997L555.645 630.412L692.403 -127.997ZM909.47 62.3415H102.496H909.47ZM742.839 -127.997L606.081 630.412L742.839 -127.997ZM918.021 14.9407H111.043H918.021ZM793.275 -127.997L656.517 630.412L793.275 -127.997ZM926.567 -32.4595H119.591H926.567ZM843.711 -127.997L706.953 630.412L843.711 -127.997ZM935.113 -79.8603H128.138H935.113ZM894.146 -127.997L757.388 630.412L894.146 -127.997ZM943.659 -127.261H136.685H943.659ZM945 -128L808.139 631Z" fill="white" style="stroke: inherit;"/>
<path d="M945 -128L808.139 631M808.448 630.752H0H808.448ZM137.606 -127.997L0.849967 630.412L137.606 -127.997ZM815.452 583.749H8.47594H815.452ZM188.042 -127.997L51.2863 630.412L188.042 -127.997ZM823.998 536.349H17.0236H823.998ZM238.478 -127.997L101.722 630.412L238.478 -127.997ZM832.544 488.949H25.5707H832.544ZM288.914 -127.997L152.158 630.412L288.914 -127.997ZM841.096 441.543H34.1178H841.096ZM339.35 -127.997L202.594 630.412L339.35 -127.997ZM849.642 394.143H42.6649H849.642ZM389.786 -127.997L253.03 630.412L389.786 -127.997ZM858.188 346.744H51.2126H858.188ZM440.222 -127.997L303.466 630.412L440.222 -127.997ZM866.734 299.344H59.7597H866.734ZM490.658 -127.997L353.902 630.412L490.658 -127.997ZM875.285 251.943H68.3068H875.285ZM541.096 -127.997L404.338 630.412L541.096 -127.997ZM883.831 204.543H76.8539H883.831ZM591.531 -127.997L454.774 630.412L591.531 -127.997ZM892.377 157.142H85.4015H892.377ZM641.967 -127.997L505.21 630.412L641.967 -127.997ZM900.923 109.742H93.9487H900.923ZM692.403 -127.997L555.645 630.412L692.403 -127.997ZM909.47 62.3415H102.496H909.47ZM742.839 -127.997L606.081 630.412L742.839 -127.997ZM918.021 14.9407H111.043H918.021ZM793.275 -127.997L656.517 630.412L793.275 -127.997ZM926.567 -32.4595H119.591H926.567ZM843.711 -127.997L706.953 630.412L843.711 -127.997ZM935.113 -79.8603H128.138H935.113ZM894.146 -127.997L757.388 630.412L894.146 -127.997ZM943.659 -127.261H136.685H943.659Z" stroke="white" style="stroke: inherit;"/>
</g>
</svg>