<svg xmlns="http://www.w3.org/2000/svg" width="536" height="500" viewBox="0 0 536 500" fill="none">
<path opacity="0.2" d="M945 -260L808.139 499M808.448 498.752H0H808.448ZM137.606 -259.997L0.849967 498.412L137.606 -259.997ZM815.452 451.749H8.47594H815.452ZM188.042 -259.997L51.2863 498.412L188.042 -259.997ZM823.998 404.349H17.0236H823.998ZM238.478 -259.997L101.722 498.412L238.478 -259.997ZM832.544 356.949H25.5707H832.544ZM288.914 -259.997L152.158 498.412L288.914 -259.997ZM841.096 309.543H34.1178H841.096ZM339.35 -259.997L202.594 498.412L339.35 -259.997ZM849.642 262.143H42.6649H849.642ZM389.786 -259.997L253.03 498.412L389.786 -259.997ZM858.188 214.744H51.2126H858.188ZM440.222 -259.997L303.466 498.412L440.222 -259.997ZM866.734 167.344H59.7597H866.734ZM490.658 -259.997L353.902 498.412L490.658 -259.997ZM875.285 119.943H68.3068H875.285ZM541.096 -259.997L404.338 498.412L541.096 -259.997ZM883.831 72.5432H76.8539H883.831ZM591.531 -259.997L454.774 498.412L591.531 -259.997ZM892.377 25.1425H85.4015H892.377ZM641.967 -259.997L505.21 498.412L641.967 -259.997ZM900.923 -22.2578H93.9487H900.923ZM692.403 -259.997L555.645 498.412L692.403 -259.997ZM909.47 -69.6585H102.496H909.47ZM742.839 -259.997L606.081 498.412L742.839 -259.997ZM918.021 -117.059H111.043H918.021ZM793.275 -259.997L656.517 498.412L793.275 -259.997ZM926.567 -164.46H119.591H926.567ZM843.711 -259.997L706.953 498.412L843.711 -259.997ZM935.113 -211.86H128.138H935.113ZM894.146 -259.997L757.388 498.412L894.146 -259.997ZM943.659 -259.261H136.685H943.659Z" stroke="#5E00F9" style="stroke: inherit;"/>
</svg>